<svg xmlns="http://www.w3.org/2000/svg" viewBox="0 0 512 488.1"><defs><style>.cls-1{fill:#fff;}</style></defs><title>quoteAsset 1</title><g id="Layer_2" data-name="Layer 2"><g id="Capa_1" data-name="Capa 1"><path class="cls-1" d="M181.72,121.89H330.28a15,15,0,0,0,0-30H181.72a15,15,0,0,0,0,30Z"/><path class="cls-1" d="M181.72,193.45H330.28a15,15,0,0,0,0-30H181.72a15,15,0,1,0,0,30Z"/><path class="cls-1" d="M502.75,134.44l-68-28.22V15a15,15,0,0,0-15-15H92.25a15,15,0,0,0-15,15v91.23l-68,28.22A15,15,0,0,0,0,148.3V473.1a15,15,0,0,0,15,15H497a15,15,0,0,0,15-15V148.3A15,15,0,0,0,502.75,134.44ZM30,184.31l139.42,138.3L30,440.73ZM256,288.58,456.09,458.1H55.91Zm86.58,34L482,184.31V440.73ZM470.44,153.52l-35.69,35.41V138.71ZM404.75,30V218.68L319.6,303.15l-53.9-45.67a15,15,0,0,0-19.39,0l-53.9,45.67-85.15-84.46V30ZM77.25,188.92,41.56,153.52l35.69-14.81Z"/></g></g></svg>