<svg xmlns="http://www.w3.org/2000/svg" viewBox="0 0 401.97 402"><defs><style>.cls-1{fill:#fff;}</style></defs><title>phoneAsset 1</title><g id="Layer_2" data-name="Layer 2"><g id="Capa_1" data-name="Capa 1"><path class="cls-1" d="M0,317.49q0,7.71,2.86,20.13a112.44,112.44,0,0,0,6,19.55q6,14.29,34.82,30.27Q70.51,402,96.78,402a111.69,111.69,0,0,0,15-1,124.27,124.27,0,0,0,16.42-3.58q9.13-2.57,13.56-4.14t15.85-5.85q11.42-4.29,14-5.14a259,259,0,0,0,50-23.7q36.55-22.55,75.52-61.53t61.52-75.52a258.61,258.61,0,0,0,23.69-50q.86-2.57,5.14-14t5.85-15.85q1.57-4.42,4.14-13.56A123.18,123.18,0,0,0,401,111.77a110.26,110.26,0,0,0,1-15q0-26.26-14.56-53.1-16-28.83-30.26-34.83a113.06,113.06,0,0,0-19.56-6Q325.17,0,317.46,0a16,16,0,0,0-6,.86q-5.14,1.71-15.13,21.69Q293.2,28,287.78,38t-10,18.13q-4.57,8.14-8.85,15.27-.86,1.15-5,7.14a79.36,79.36,0,0,0-6.14,10.14,18.64,18.64,0,0,0-2,8.14q0,5.71,8.14,14.27a139,139,0,0,0,17.7,15.7,172,172,0,0,1,17.7,15.13q8.14,8,8.14,13.13a19.32,19.32,0,0,1-1.43,6.42,61.87,61.87,0,0,1-2.43,5.85q-1,2-4,6.85t-3.28,5.42q-21.7,39.12-49.68,67.1t-67.09,49.68c-.38.19-2.18,1.29-5.43,3.29s-5.52,3.33-6.85,4-3.29,1.47-5.86,2.42a19.42,19.42,0,0,1-6.43,1.42q-5.13,0-13.13-8.14a172.13,172.13,0,0,1-15.13-17.7,139,139,0,0,0-15.7-17.71q-8.56-8.13-14.27-8.14a18.69,18.69,0,0,0-8.14,2,80.24,80.24,0,0,0-10.14,6.14q-6,4.15-7.14,5-7.13,4.28-15.28,8.85T38,287.78q-10,5.43-15.41,8.57-20,10-21.7,15.13A15.92,15.92,0,0,0,0,317.49Z"/></g></g></svg>